<?xml version="1.0" standalone="no"?>
<!DOCTYPE svg PUBLIC "-//W3C//DTD SVG 20010904//EN"
 "http://www.w3.org/TR/2001/REC-SVG-20010904/DTD/svg10.dtd">
<svg version="1.0" xmlns="http://www.w3.org/2000/svg"
 width="512.000000pt" height="512.000000pt" viewBox="0 0 512.000000 512.000000"
 preserveAspectRatio="xMidYMid meet">

<g transform="translate(0.000000,512.000000) scale(0.100000,-0.100000)"
fill="#000000" stroke="none">
<path d="M2033 4068 l-183 -183 -2 -175 -3 -175 -405 -5 c-400 -5 -406 -5
-452 -28 -75 -38 -134 -96 -170 -170 l-33 -67 -3 -1042 c-2 -1037 -2 -1043 19
-1105 33 -99 94 -169 189 -216 l55 -27 1520 0 1520 0 55 27 c95 47 156 117
189 216 21 62 21 68 19 1105 l-3 1042 -33 67 c-36 74 -95 132 -170 170 -46 23
-52 23 -452 28 l-405 5 -3 175 -2 175 -183 183 -182 182 -350 0 -350 0 -182
-182z m885 -355 l-3 -178 -350 0 -350 0 -3 178 -2 177 355 0 355 0 -2 -177z
m10 -1010 c262 -141 480 -259 485 -263 4 -3 -40 -39 -98 -79 -58 -41 -105 -76
-105 -80 0 -3 47 -30 105 -60 103 -53 104 -54 82 -70 -12 -10 -180 -129 -374
-265 l-352 -247 -253 137 c-350 190 -712 386 -716 389 -1 1 46 35 104 75 123
84 125 72 -19 146 -49 25 -85 50 -81 54 12 11 738 520 742 520 2 0 218 -115
480 -257z"/>
</g>
</svg>
