<?xml version="1.0" standalone="no"?>
<!DOCTYPE svg PUBLIC "-//W3C//DTD SVG 20010904//EN"
 "http://www.w3.org/TR/2001/REC-SVG-20010904/DTD/svg10.dtd">
<svg version="1.0" xmlns="http://www.w3.org/2000/svg"
 width="400.000000pt" height="400.000000pt" viewBox="0 0 400.000000 400.000000"
 preserveAspectRatio="xMidYMid meet">

<g transform="translate(0.000000,400.000000) scale(0.100000,-0.100000)"
fill="#000000" stroke="none">
<path d="M2045 3535 c-157 -34 -306 -114 -349 -187 -49 -84 -69 -238 -50 -382
l7 -46 31 62 c45 91 93 118 223 128 67 5 138 19 223 45 103 30 142 37 222 38
75 2 101 -1 112 -13 17 -17 76 -220 76 -261 0 -28 0 -28 -52 -23 -29 3 -66 11
-82 17 -40 15 -123 12 -166 -6 -56 -23 -153 -31 -226 -17 -56 11 -65 15 -61
31 5 17 -1 19 -46 19 -33 0 -63 -7 -82 -18 -19 -12 -59 -21 -110 -25 -45 -3
-89 -9 -98 -13 -22 -8 -22 -52 -1 -75 9 -10 31 -51 48 -91 40 -93 71 -112 191
-112 114 -1 151 20 185 102 33 81 45 92 69 67 10 -11 26 -41 35 -67 10 -26 29
-57 42 -67 39 -31 127 -45 200 -33 78 13 107 32 131 85 44 97 44 97 38 37 -14
-130 -99 -235 -208 -255 -31 -6 -51 -1 -110 26 -63 30 -84 34 -162 36 -153 5
-165 3 -257 -31 -106 -40 -114 -37 -124 57 -6 55 -8 59 -18 37 -5 -14 -26 -59
-45 -100 -58 -127 -43 -210 53 -282 57 -42 182 -94 264 -109 99 -19 242 5 342
56 48 25 144 118 204 199 46 61 123 222 136 284 6 26 12 74 15 107 2 33 11 94
20 135 36 167 5 328 -81 416 -213 217 -343 272 -539 229z m-36 -689 c30 -27
34 -66 14 -121 -27 -73 -63 -90 -179 -89 -50 1 -100 6 -111 12 -32 17 -53 73
-53 139 0 80 8 83 177 79 110 -2 136 -6 152 -20z m412 9 c6 -4 15 -2 19 5 7
11 14 11 39 0 30 -12 31 -15 31 -72 0 -73 -21 -122 -60 -138 -47 -20 -201 -18
-231 2 -33 21 -61 81 -63 131 -1 31 5 44 28 64 28 24 34 25 127 20 54 -3 103
-8 110 -12z m-561 -447 c0 -84 56 -131 157 -129 83 1 154 55 184 139 7 21 18
32 30 32 18 0 19 -2 4 -37 -28 -67 -50 -97 -94 -128 -40 -28 -49 -30 -129 -30
-145 0 -188 41 -183 172 2 50 31 32 31 -19z m300 15 c0 -22 -70 -36 -150 -30
-74 5 -120 19 -120 36 0 4 61 7 135 7 96 -1 135 -4 135 -13z"/>
<path d="M1845 2819 c-4 -6 -5 -12 -2 -15 7 -7 37 7 37 17 0 13 -27 11 -35 -2z"/>
<path d="M1886 2805 c-4 -14 -11 -24 -17 -22 -7 1 -14 -4 -17 -12 -3 -9 0 -11
8 -6 9 5 11 -3 8 -31 -2 -32 0 -39 16 -42 40 -8 60 56 29 90 -9 10 -13 18 -10
18 3 0 18 -12 32 -27 33 -36 33 -13 -1 26 -31 38 -40 39 -48 6z"/>
<path d="M2310 2795 c-9 -11 -10 -19 -3 -26 7 -7 14 -5 23 6 9 11 10 19 3 26
-7 7 -14 5 -23 -6z"/>
<path d="M2350 2787 c0 -15 69 -51 79 -42 8 9 -46 55 -65 55 -8 0 -14 -6 -14
-13z"/>
<path d="M1730 1980 c-139 -27 -198 -51 -307 -123 l-63 -42 0 -170 c-1 -93 -5
-214 -9 -267 -8 -84 -14 -106 -45 -161 -59 -107 -107 -140 -231 -162 -37 -7
-38 -8 -16 -16 81 -31 296 77 371 186 17 25 35 43 39 40 5 -2 9 -186 10 -407
2 -373 -11 -669 -36 -820 l-6 -38 618 0 617 0 -6 38 c-10 61 -18 989 -9 1090
l8 94 194 -2 194 -1 -6 113 c-12 207 -76 374 -197 511 -56 63 -108 91 -205
111 -199 40 -174 40 -257 6 -215 -86 -387 -86 -513 0 -22 14 -44 29 -50 32 -5
2 -48 -3 -95 -12z"/>
<path d="M931 1246 c-1 -81 14 -137 44 -166 l22 -20 -24 97 c-42 167 -41 166
-42 89z"/>
</g>
</svg>
