<svg width="625" height="676" viewBox="0 0 625 676" fill="none" xmlns="http://www.w3.org/2000/svg">
<g filter="url(#filter0_i_105_7)">
<path d="M361.22 436.116L358.87 445.77V446.459C358.535 446.919 357.863 447.976 357.863 448.528C357.863 449.079 357.192 462.548 356.856 469.213L360.213 472.661L526.724 519.547C528.257 519.8 528.878 519.631 529.073 518.168L533.102 487.14L560.294 422.671L572.38 412.673C571.648 410.943 570.665 410.752 569.023 410.26L541.495 404.399L536.795 406.812L529.073 406.467L522.024 403.365H514.302L505.91 400.951V397.159H504.903L445.483 385.437L403.855 376.474L386.398 385.437L367.934 422.671L361.22 436.116Z" fill="url(#paint0_linear_105_7)"/>
</g>
<path d="M520.345 455.078C520.345 455.078 492.146 448.872 491.474 447.838C490.803 446.804 491.07 444.91 491.81 443.701C491.81 443.701 498.524 426.463 500.539 424.739C502.553 423.015 504.607 423.351 506.917 424.05L531.424 429.566C533.404 429.996 534.445 430.6 534.109 432.324C533.773 434.048 529.403 444.511 526.388 452.32C524.543 455.244 523.187 455.689 520.345 455.078Z" fill="url(#paint1_linear_105_7)"/>
<path d="M347.792 557.47L309.186 547.817L306.5 543.335C328.345 547.283 337.6 545.274 350.142 536.095L347.792 557.47Z" fill="black" fill-opacity="0.19"/>
<g filter="url(#filter1_d_105_7)">
<path d="M400.162 315.452C393.112 313.038 388.748 307.178 388.748 295.801C388.748 284.424 396.343 211.517 398.148 205.13C403.126 196.772 408.555 193.408 416.948 193.408C425.34 193.408 587.486 204.785 597.222 207.543C606.957 210.301 611.911 217.929 613 228.573L598.9 327.863C597.375 333.146 596.215 335.448 591.179 339.929C586.144 344.411 582.125 345.021 570.03 344.411C570.03 344.411 407.212 317.865 400.162 315.452Z" fill="url(#paint2_linear_105_7)"/>
</g>
<g filter="url(#filter2_i_105_7)">
<path d="M408.219 214.093C409.898 206.509 419.274 202.055 427.69 202.027L572.715 214.093C589.03 215.234 596.551 222.368 596.551 232.365C596.551 242.363 584.801 320.278 584.801 320.278C581.298 329.314 578.63 333.881 562.644 334.068L417.619 310.97C409.054 309.792 401.505 301.661 400.834 296.145C400.162 290.629 406.541 221.678 408.219 214.093Z" fill="#0F4180"/>
</g>
<path d="M412.919 260.291C408.593 259.273 406.877 257.406 404.19 253.396C404.19 253.396 400.833 286.492 401.505 294.422C402.176 302.351 403.795 304.995 409.562 308.557L485.431 322.002L561.301 333.724C573.662 334.03 578.422 331.655 581.108 328.208C583.793 324.76 584.346 321.836 584.8 316.831L577.079 307.867C573.36 304.253 568.862 305.567 559.622 309.591C549.689 314.301 544.803 315.344 537.13 314.762C532.407 312.257 529.409 304.764 525.045 296.145C520.681 287.527 514.203 284.888 505.238 280.976C500.662 278.431 500.762 271.488 499.867 261.325C498.409 250.386 493.488 239.605 491.474 240.64C489.46 241.674 482.81 251.46 477.374 261.325C474.794 263.893 472.339 265.807 467.639 266.841C462.939 267.875 461.757 269.887 455.218 272.702C449.036 272.632 442.158 272.792 440.782 266.841C439.407 260.89 435.411 253.74 429.368 253.396C423.326 253.051 419.593 255.158 412.919 260.291Z" fill="url(#paint3_linear_105_7)" stroke="#1477A7"/>
<path d="M355.513 476.453L359.206 472.66L526.724 520.237L528.738 522.305L508.595 664L344.771 597.807L355.513 476.453Z" fill="url(#paint4_linear_105_7)"/>
<g filter="url(#filter3_i_105_7)">
<path d="M527.721 526.097L353.163 475.871L356.566 471.626L526.02 520.438L528.402 522.914L527.721 526.097Z" fill="#7FEAF9"/>
</g>
<g filter="url(#filter4_i_105_7)">
<path d="M386.734 525.118L387.07 519.203L485.432 550.173L484.76 556.436L386.734 525.118Z" fill="url(#paint5_linear_105_7)"/>
</g>
<g filter="url(#filter5_i_105_7)">
<path d="M384.048 553.388L384.384 547.472L482.746 578.442L482.075 584.706L384.048 553.388Z" fill="url(#paint6_linear_105_7)"/>
</g>
<g filter="url(#filter6_i_105_7)">
<path d="M381.858 579.777L382.408 573.878L479.577 608.595L478.679 614.828L381.858 579.777Z" fill="url(#paint7_linear_105_7)"/>
</g>
<g filter="url(#filter7_di_105_7)">
<path d="M545.187 623.4L508.26 664L530.08 522.933L526.388 520.181H530.752L558.615 492.311L561.973 496.784L545.187 623.4Z" fill="url(#paint8_linear_105_7)"/>
<path d="M545.187 623.4L508.26 664L530.08 522.933L526.388 520.181H530.752L558.615 492.311L561.973 496.784L545.187 623.4Z" stroke="#1E2128"/>
</g>
<path d="M573.051 417.155C573.364 415.428 573.21 414.446 572.379 412.673L560.294 422.671L533.102 487.485L528.738 519.547L530.416 519.892C531.317 519.121 531.792 518.645 532.43 517.479L537.13 489.554L537.802 486.796L561.972 425.084L573.051 417.155Z" fill="url(#paint9_linear_105_7)"/>
<g filter="url(#filter8_di_105_7)">
<path d="M392.777 418.878C394.119 418.189 395.231 418.381 396.805 418.878C396.805 418.878 410.905 421.981 412.583 422.671C414.262 423.36 415.11 424.324 414.597 425.774C414.597 425.774 414.262 428.532 412.583 430.255C410.905 431.979 409.685 431.883 407.883 431.634L391.769 427.497C390.221 426.835 389.42 426.808 390.091 424.739C390.762 422.671 391.434 419.568 392.777 418.878Z" fill="#89DAEC"/>
</g>
<g filter="url(#filter9_di_105_7)">
<path d="M427.258 426.566C428.6 425.877 429.712 426.068 431.286 426.566C431.286 426.566 445.386 429.669 447.064 430.359C448.743 431.048 449.591 432.012 449.078 433.461C449.078 433.461 448.743 436.219 447.064 437.943C445.386 439.667 444.166 439.571 442.364 439.322L426.25 435.185C424.702 434.523 423.9 434.496 424.572 432.427C425.243 430.359 425.915 427.256 427.258 426.566Z" fill="#89DAEC"/>
</g>
<g filter="url(#filter10_di_105_7)">
<path d="M435.986 410.018C437.329 409.329 438.44 409.521 440.015 410.018C440.015 410.018 454.114 413.121 455.793 413.811C457.471 414.5 458.32 415.464 457.807 416.914C457.807 416.914 457.471 419.672 455.793 421.395C454.114 423.119 452.895 423.023 451.093 422.774L434.979 418.637C433.431 417.975 432.629 417.948 433.3 415.879C433.972 413.811 434.643 410.708 435.986 410.018Z" fill="#89DAEC"/>
</g>
<g filter="url(#filter11_di_105_7)">
<path d="M401.072 401.744C402.415 401.055 403.527 401.246 405.101 401.744C405.101 401.744 419.201 404.847 420.879 405.537C422.558 406.226 423.406 407.19 422.893 408.639C422.893 408.639 422.558 411.397 420.879 413.121C419.201 414.845 417.981 414.749 416.179 414.5L400.065 410.363C398.517 409.701 397.715 409.674 398.387 407.605C399.058 405.536 399.73 402.434 401.072 401.744Z" fill="#89DAEC"/>
</g>
<g filter="url(#filter12_di_105_7)">
<path d="M563.651 487.14L532.43 517.824C534.342 505.154 535.33 497.743 537.802 487.14L561.973 425.084L573.387 417.155L563.651 487.14Z" fill="url(#paint10_linear_105_7)"/>
</g>
<path d="M286.022 506.447C284.984 508.809 284.827 510.706 285.015 514.721L283.068 513.054C282.91 510.003 283.226 508.184 284.679 504.723C286.147 502.289 287.059 501.278 288.707 499.552H289.715L290.722 500.931C288.623 502.47 287.457 503.359 286.022 506.447Z" fill="#3685A9"/>
<path d="M283.001 512.997L280.651 510.928L281.658 496.104C284.976 497.273 286.841 497.916 290.05 499.551H288.708C286.759 501.741 285.351 502.999 284.343 505.757C283.336 508.515 283.004 510.368 283.001 512.997Z" fill="#3093BD"/>
<path d="M74.5269 497.482C65.7987 500.93 48.0247 513.681 39.6134 521.615C34.3871 514.374 36.2193 509.012 38.2706 501.964C40.3219 494.917 60.985 479.608 79.2268 475.418C121.076 467.449 140.324 468.821 173.896 472.315V491.277C159.868 490.469 153.418 489.208 137.975 489.208C122.533 489.208 83.2552 494.035 74.5269 497.482Z" fill="url(#paint11_linear_105_7)" stroke="#33B2D3"/>
<path d="M248.423 495.069C247.863 491.392 246.744 483.899 246.744 483.347L245.737 482.658L244.394 492.311L248.423 495.069Z" fill="#BCECF8"/>
<path d="M279.308 485.417L269.908 473.35L246.408 482.659L247.416 492.312L269.908 502.654L273.936 494.725H277.293H279.308V485.417Z" fill="url(#paint12_linear_105_7)" stroke="#7DD1E5"/>
<path d="M269.572 473.005C270.244 473.005 247.751 481.969 246.409 482.314L175.574 460.249L201.088 452.32C223.692 459.215 269.035 473.005 269.572 473.005Z" fill="#70C9E1" stroke="#70C9E1"/>
<path d="M8.39258 493.001V516.445L27.5278 495.414L35.5848 493.001V482.658L21.4851 479.556L8.39258 493.001Z" fill="url(#paint13_linear_105_7)"/>
<g filter="url(#filter13_d_105_7)">
<path d="M503.239 436.655C503.224 436.531 503.224 436.461 503.224 436.461C503.229 436.526 503.234 436.591 503.239 436.655C503.311 437.261 503.738 439.167 506.245 440.598C509.267 442.322 510.961 443.059 514.302 442.322C517.644 441.584 518.333 440.64 520.345 439.564C521.767 438.198 521.742 437.109 522.359 435.427C522.228 437.985 522.024 440.943 521.688 441.977C521.352 443.011 519.002 444.39 516.988 444.735C514.974 445.08 510.945 444.735 510.945 444.735C508.128 444.238 505.574 443.011 504.567 441.977C503.583 440.967 503.443 439.319 503.239 436.655Z" fill="url(#paint14_linear_105_7)"/>
</g>
<path d="M493.489 453.009C491.801 452 491.343 447.824 491.474 447.838C491.605 447.853 516.317 454.388 520.009 455.078C523.702 455.767 524.199 455.04 526.052 453.009C529.461 444.984 532.071 440.984 534.109 431.979L535.116 437.151C531.932 445.114 530.591 449.107 525.716 458.87C523.732 459.866 522.695 459.56 520.009 459.215C517.324 458.87 493.489 453.009 493.489 453.009Z" fill="url(#paint15_linear_105_7)"/>
<ellipse cx="512.624" cy="435.082" rx="9.73549" ry="7.58463" fill="#B7AFA4"/>
<g filter="url(#filter14_d_105_7)">
<ellipse cx="512.624" cy="435.082" rx="9.73549" ry="7.58463" fill="#B7AFA4"/>
</g>
<path d="M2.35037 526.098C0.974474 534.916 0.560355 538.533 0.671599 540.233L13.7644 522.995C13.2946 518.752 13.5995 515.894 16.45 508.86L2.35037 526.098Z" fill="#6A8DAA"/>
<path d="M115.819 567.813C116.602 567.239 118.37 566.02 119.176 565.745C169.525 575.409 194.258 574.967 231.973 565.745L235.33 569.192C195.739 577.439 171.108 579.044 115.819 567.813Z" fill="white"/>
<path d="M103.733 584.361L115.819 567.813C169.642 579.847 194.174 577.352 235.666 569.192L252.451 585.396C219.425 596.77 165.049 599.07 103.733 584.361Z" fill="#79C5DF"/>
<path d="M92.655 609.873L103.733 584.361C168.662 598.897 214.065 598.054 252.451 585.396L265.544 610.908C206.171 628.973 158.721 624.918 92.655 609.873Z" fill="#698BA7"/>
<path d="M89.298 471.626C90.6733 471.376 104.426 469.432 110.272 468.806C116.117 468.179 124.368 468.179 131.933 468.179C139.497 468.179 153.113 468.806 153.938 468.806C154.763 468.806 168.035 470.059 174.567 470.686" stroke="#7DD1E5" stroke-width="2"/>
<path d="M304.486 539.543C292.465 521.857 292.438 523.21 287.365 517.479C293.226 525.727 296.941 529.652 301.8 539.543L304.486 540.922L303.814 541.267C308.692 548.823 310.393 551.778 313.214 556.781C310.46 550.024 308.789 546.24 304.486 539.543Z" fill="#4488A8"/>
<path d="M301.8 539.543L283.001 529.2L277.965 526.787L276.958 528.511C276.708 525.929 276.317 524.334 275.279 521.271C270.241 510.592 264.934 504.682 247.751 494.38V492.311C253.57 495.069 258.83 496.793 265.879 500.93C272.929 505.067 284.09 513.087 287.7 517.823C295.397 527.419 298.044 531.951 301.8 539.543Z" fill="url(#paint16_linear_105_7)"/>
<path d="M42.299 483.348V491.967L42.9704 493.691C56.9194 481.226 67.9721 476.869 91.6478 472.316V463.007C71.5999 467.924 60.5743 471.53 42.299 483.348Z" fill="url(#paint17_linear_105_7)"/>
<path d="M39.6135 531.958C28.3371 515.957 26.806 507.277 38.2707 492.656L42.2991 491.967L42.9705 494.035C31.8814 508.416 33.6921 515.931 43.9777 528.856L39.6135 531.958Z" fill="#FAFEFC"/>
<path d="M258.494 571.605L232.645 555.747C263.223 548.131 272.584 541.713 277.965 527.132L303.814 540.922L258.494 571.605Z" fill="#BFFAFE" stroke="#BFFAFE"/>
<path d="M36.2568 514.72C37.4588 519.892 38.9512 524.889 44.3138 529.2L49.3494 524.718C70.672 543.336 86.3734 549.154 118.841 554.023V566.434C156.538 571.435 178.615 576.857 231.302 566.434L232.981 555.057C244.155 554.112 250.807 551.728 263.194 545.059C277.489 534.448 279.06 529.099 274.608 520.237C267.47 508.724 262.269 502.581 245.066 493.69L246.409 483.003L175.911 460.938L174.568 471.626C164.193 470.424 158.373 469.722 148.047 469.213C137.227 468.533 130.798 468.266 114.812 469.213C103.422 470.257 96.8009 471.094 83.9272 473.694C73.2606 476.936 59.4205 480.59 52.3708 486.106C45.321 491.622 43.3065 493.001 39.6139 498.862C35.9213 504.722 35.0549 509.549 36.2568 514.72Z" fill="#4EC5E1" fill-opacity="0.28"/>
<path d="M246.744 516.1L247.751 495.414L244.73 493.346L242.716 517.823L246.744 516.1Z" fill="#7DD1E5" stroke="#7DD1E5" stroke-width="2"/>
<path d="M38.942 281.051L41.6277 113.08C149.12 116.667 207.225 116.486 309.521 114.808L289.715 375.751L282.329 476.326L279.644 526.787C279.558 519.039 277.828 515.132 272.258 508.815C264.372 502.52 260.532 498.414 250.101 494.644L247.416 493.607L246.744 483.585L211.159 472.179L175.91 461.465L174.903 470.105C158.949 468.624 149.489 468.129 131.933 467.686C114.69 468.071 105.855 468.776 91.9836 471.142V463.884C70.6678 468.937 59.9755 473.677 42.2991 484.276V492.916C39.6798 493.264 38.2117 493.399 35.585 494.644L36.0834 463.172L37.5992 347.065L38.942 281.051Z" fill="url(#paint18_linear_105_7)"/>
<path d="M35.5847 493.001L28.8706 481.279L42.2989 483.289V491.661L35.5847 493.001Z" fill="url(#paint19_linear_105_7)"/>
<path d="M30.2136 112.39C28.7076 112.91 27.2528 108.912 24.8423 103.082C65.7568 104.526 95.3406 104.461 128.24 104.461H213.174H281.993L327.314 103.771C325.54 108.062 324.359 110.239 321.943 113.769C306.331 114.774 297.394 115.094 281.322 115.493L225.259 115.838L170.203 115.493C141.195 115.885 109.776 114.804 95.3406 114.804C80.9053 114.804 56.0206 114.138 30.2136 112.39Z" fill="url(#paint20_linear_105_7)"/>
<path d="M25.5138 68.9511C26.3814 66.0168 27.0162 64.3628 28.8709 61.3664C61.6886 59.0248 78.2197 58.79 107.426 58.2636C136.633 57.7373 198.778 57.5401 255.137 57.2294C283.615 57.6353 324.293 57.5741 326.642 60.3322C328.675 62.7173 329.514 68.3239 330.084 69.4632C330.306 69.5277 330.396 69.5872 330.335 69.6406C330.256 69.7102 330.173 69.6413 330.084 69.4632C328.164 68.905 316.352 67.9635 306.5 67.2273C295.508 66.406 182.289 66.193 182.289 66.193L25.5138 68.9511Z" fill="url(#paint21_linear_105_7)"/>
<path d="M2.3501 526.098L16.4498 509.205" stroke="black" stroke-opacity="0.21"/>
<path d="M28.8708 61.3663C27.9172 60.1954 27.3183 58.9485 26.1852 55.8502C34.2197 53.3523 49.0401 51.4318 49.6846 51.3683C50.9928 51.2396 126.888 48.7188 164.161 49.2998C218.291 48.1085 241.745 48.9362 288.708 49.2998C303.108 49.7012 311.176 49.9312 323.957 51.7131L330 54.1264C329.032 56.4908 328.373 57.7903 326.642 59.9872L321.943 59.2977L288.708 57.9187L232.645 56.8844H177.924L65.7985 58.953L28.8708 61.3663Z" fill="url(#paint22_linear_105_7)"/>
<path d="M26.1852 54.8159V19.6508C90.8314 2.35626 286.851 8.566 334.028 14.4795C334.028 14.4795 332.014 49.2996 331.678 51.0236C331.342 52.7475 330.928 53.6053 330 54.1264C326.448 52.4167 324.628 51.7132 319.593 51.0236C314.557 50.3339 308.179 49.9893 308.179 49.9893L290.386 49.2998L198.067 48.955L118.504 49.6446L90.3051 49.9893L66.47 50.6788C66.47 50.6788 54.3845 50.8971 46.6633 51.7131C38.942 52.529 26.8566 55.85 26.5209 55.5054C26.1852 55.1608 26.2164 55.1482 26.1852 54.8159Z" fill="url(#paint23_linear_105_7)"/>
<path d="M31.2208 13.1007L26.5209 19.3063C28.3563 18.9024 29.8779 18.6167 31.2208 18.2721C32.5636 17.9274 53.0417 14.8244 67.1414 13.1007C81.241 11.377 98.6505 11.2096 118.84 9.99792C153.21 8.9225 173.103 7.73072 206.124 7.92939C206.124 7.92939 283.336 8.96374 299.115 9.99792C314.893 11.0321 321.496 12.2328 333.692 14.135C331.757 11.6238 330 8.96374 328.657 7.92939C327.314 6.89503 322.278 6.20552 316.907 4.82658C311.536 3.44764 288.25 1.3777 266.887 1.03427C266.887 1.03427 236.337 4.34099e-06 206.124 0C175.91 -4.34099e-06 126.103 1.98931 126.561 1.72378C127.02 1.45825 95.7114 2.62606 70.1627 5.51609C44.614 8.40613 45.6051 8.129 41.292 9.30841C36.9788 10.4878 34.7362 10.4043 31.2208 13.1007Z" fill="url(#paint24_linear_105_7)"/>
<path d="M24.8424 103.082C24.836 90.4447 25.0627 82.7664 25.5138 68.9511C118.069 66.5331 163.069 67.2197 249.766 66.5378C305.806 67.7879 300.72 68.4318 330 69.6406L327.314 103.771L24.8424 103.082Z" fill="url(#paint25_linear_105_7)"/>
<path d="M118.84 554.713C81.2972 548.316 67.5241 541.013 49.3487 524.719L29.2063 539.543L99.7047 571.261L118.84 554.713Z" fill="#94DFFB"/>
<path d="M27.5277 495.414L38.2703 492.656C27.774 507.154 25.7137 515.576 39.6132 531.958C30.6932 537.354 27.3345 540.249 25.8492 545.059C12.0153 526.757 7.01122 516.289 27.5277 495.414Z" fill="url(#paint26_linear_105_7)"/>
<path d="M275.279 599.531L258.494 571.95L304.486 540.922L319.593 567.469L275.279 599.531Z" fill="#AADBEC"/>
<path d="M273.265 648.486L275.279 599.531L319.928 567.468L316.907 616.424L273.265 648.486Z" fill="#5F89AB"/>
<path d="M231.637 566.089L232.309 555.747L258.494 572.295L275.279 599.186L273.601 648.486H264.872L266.215 611.252C261.063 601.078 254.465 587.119 252.787 585.396C251.108 583.672 239.947 571.392 231.637 566.089Z" fill="url(#paint27_linear_105_7)"/>
<path d="M264.928 643.001L265.88 610.128C208.558 626.81 160.835 624.164 92.655 608.839L92.711 643.001C161.097 651.819 199.006 653.375 264.928 643.001Z" fill="url(#paint28_linear_105_7)"/>
<path d="M100.007 568.969L118.84 556.436V567.863L115.416 570.075L103.431 584.82L93.1584 609.886L92.4736 648.592L84.5979 652.278L86.6524 596.985L100.007 568.969Z" fill="url(#paint29_linear_105_7)"/>
<path d="M85.2693 635.73L93.3263 612.286L92.3191 648.831L84.5979 652.278L85.2693 635.73Z" fill="#7D7D7D" fill-opacity="0.52"/>
<path d="M84.5887 652.278L14.0997 615.389L16.7979 563.331L86.6123 597.117L84.5887 652.278Z" fill="#A7A8AC" stroke="#A7A8AC"/>
<path d="M27.528 541.267L29.2065 539.543L99.0335 570.916L86.6123 596.772L16.7854 562.986L27.528 541.267Z" fill="#CFDFEC"/>
<path d="M0.671413 539.543C2.96054 550.111 3.29848 555.687 15.4425 569.881L14.0997 602.289C5.23137 590.923 2.61267 584.59 0 573.329L0.671413 539.543Z" fill="#515359"/>
<path d="M16.4496 563.331L25.5137 545.404C18.7975 537.234 16.4515 532.309 13.7639 522.995L0.671387 539.888C4.16265 555.726 8.24525 560.283 15.7782 569.881L16.4496 563.331Z" fill="#7791AB"/>
<path d="M8.05688 516.789L26.5207 495.759L16.1138 510.239L2.01416 527.132L8.05688 516.789Z" fill="#6689A8"/>
<path d="M35.9206 473.695L21.8209 479.556L35.5849 482.658L35.9206 473.695Z" fill="#ADDCE9"/>
<path d="M69.827 459.215L36.2564 473.695L35.9207 482.658L42.2991 483.348C58.9064 472.402 70.1 468.396 91.3122 462.662L69.827 459.215Z" fill="#74C4DD"/>
<path d="M174.232 493.346C175.958 492.806 221.792 508.607 242.044 518.513L244.394 492.312L246.073 483.003L174.903 460.594C174.679 471.167 173.461 493.587 174.232 493.346Z" fill="#79D8EC"/>
<path d="M248.423 495.07L247.416 516.789C254.735 517.616 269.993 532.97 271.587 538.164C271.767 538.752 275.391 532.073 276.958 528.856C273.804 510.841 263.707 505.732 248.423 495.07Z" fill="#3FBADA"/>
<path d="M248.423 495.07C260.898 502.944 265.238 506.615 269.908 512.307" stroke="#3FBADA"/>
<path d="M279.643 495.07L281.658 496.104L280.651 510.928L269.908 503.344L274.272 495.07H279.643Z" fill="#3CA5C9"/>
<g filter="url(#filter15_i_105_7)">
<path d="M524.709 395.78L531.759 338.206C538.49 339.7 541.972 340.172 547.873 340.619L540.487 398.193C533.731 398.87 530.205 398.521 524.709 395.78Z" fill="url(#paint30_linear_105_7)"/>
</g>
<g filter="url(#filter16_i_105_7)">
<path d="M530.752 337.861C525.146 337.51 521.735 336.959 514.974 335.103L507.924 391.988C513.553 395.045 517.016 395.665 523.702 395.09L530.752 337.861Z" fill="url(#paint31_linear_105_7)"/>
</g>
<g filter="url(#filter17_i_105_7)">
<path d="M505.91 400.951C506.066 396.515 506.604 393.926 507.588 391.298C514.028 395.306 517.515 395.402 523.702 395.09L522.023 403.02C519.658 403.252 518.045 403.278 514.302 403.02C510.176 402.571 508.575 402.018 505.91 400.951Z" fill="url(#paint32_linear_105_7)"/>
</g>
<g filter="url(#filter18_i_105_7)">
<path d="M540.823 398.193C534.795 398.82 531.34 398.717 524.709 395.78L523.702 403.709C525.651 405.148 526.871 405.646 529.073 406.467C535.441 407.348 537.739 406.733 540.823 404.743V398.193Z" fill="url(#paint33_linear_105_7)"/>
</g>
<g filter="url(#filter19_di_105_7)">
<path d="M284.679 514.376C284.008 513.686 285.266 504.431 290.386 500.585L298.443 504.378L314.221 509.204H319.087C323.25 508.281 328.657 502.309 329.328 498.862C329.999 495.414 330 492.656 330 492.656L330.671 482.658L332.35 463.352C332.35 463.352 333.021 451.63 334.364 447.148C335.707 442.666 338.056 438.874 342.085 434.737C346.114 430.6 351.047 427.727 357.274 425.773H366.256C362.249 432.954 360.378 437.146 358.87 445.425C354.317 447.633 350.478 451.285 349.806 457.836C349.135 464.386 347.792 492.311 347.792 492.311C347.149 498.69 347.121 502.654 345.106 509.204C343.092 515.755 340.579 518.227 335.035 522.305C331.131 524.614 328.851 525.871 321.607 526.787H313.55C305.239 525.143 300.958 523.281 293.072 520.581C288.833 519.053 285.351 515.065 284.679 514.376Z" fill="#97CCBE"/>
</g>
<g filter="url(#filter20_ii_105_7)">
<path d="M300.457 534.027L287.029 517.134C296.817 522.461 302.468 525.002 313.55 526.787C313.55 526.787 317.914 527.132 321.607 527.132C325.3 527.132 331.678 524.374 337.049 521.271C342.421 518.168 346.133 508.286 347.792 494.725C348.878 469.802 349.135 456.112 351.485 452.32C353.835 448.527 355.889 446.91 358.87 445.425L358.199 448.183L356.856 461.973L355.513 476.797L350.142 535.751C345.512 538.502 342.085 541.267 337.049 542.99C332.014 544.714 328.321 545.059 321.943 545.059C315.564 545.059 307.171 543.68 306.5 542.99C305.829 542.301 300.457 534.027 300.457 534.027Z" fill="#807589"/>
</g>
<path d="M431.047 341.308V321.657L441.454 323.381L438.097 342.687L431.047 341.308Z" fill="#25B3D8"/>
<path d="M555.594 363.373L556.266 342.343L569.022 344.066L564.323 365.097L555.594 363.373Z" fill="#20719F"/>
<defs>
<filter id="filter0_i_105_7" x="356.856" y="376.474" width="217.524" height="147.171" filterUnits="userSpaceOnUse" color-interpolation-filters="sRGB">
<feFlood flood-opacity="0" result="BackgroundImageFix"/>
<feBlend mode="normal" in="SourceGraphic" in2="BackgroundImageFix" result="shape"/>
<feColorMatrix in="SourceAlpha" type="matrix" values="0 0 0 0 0 0 0 0 0 0 0 0 0 0 0 0 0 0 127 0" result="hardAlpha"/>
<feOffset dx="2" dy="5"/>
<feGaussianBlur stdDeviation="2"/>
<feComposite in2="hardAlpha" operator="arithmetic" k2="-1" k3="1"/>
<feColorMatrix type="matrix" values="0 0 0 0 0 0 0 0 0 0 0 0 0 0 0 0 0 0 0.25 0"/>
<feBlend mode="normal" in2="shape" result="effect1_innerShadow_105_7"/>
</filter>
<filter id="filter1_d_105_7" x="388.748" y="187.408" width="236.252" height="159.202" filterUnits="userSpaceOnUse" color-interpolation-filters="sRGB">
<feFlood flood-opacity="0" result="BackgroundImageFix"/>
<feColorMatrix in="SourceAlpha" type="matrix" values="0 0 0 0 0 0 0 0 0 0 0 0 0 0 0 0 0 0 127 0" result="hardAlpha"/>
<feOffset dx="8" dy="-2"/>
<feGaussianBlur stdDeviation="2"/>
<feComposite in2="hardAlpha" operator="out"/>
<feColorMatrix type="matrix" values="0 0 0 0 0 0 0 0 0 0 0 0 0 0 0 0 0 0 0.62 0"/>
<feBlend mode="normal" in2="BackgroundImageFix" result="effect1_dropShadow_105_7"/>
<feBlend mode="normal" in="SourceGraphic" in2="effect1_dropShadow_105_7" result="shape"/>
</filter>
<filter id="filter2_i_105_7" x="400.784" y="202.027" width="199.766" height="134.042" filterUnits="userSpaceOnUse" color-interpolation-filters="sRGB">
<feFlood flood-opacity="0" result="BackgroundImageFix"/>
<feBlend mode="normal" in="SourceGraphic" in2="BackgroundImageFix" result="shape"/>
<feColorMatrix in="SourceAlpha" type="matrix" values="0 0 0 0 0 0 0 0 0 0 0 0 0 0 0 0 0 0 127 0" result="hardAlpha"/>
<feOffset dx="5" dy="2"/>
<feGaussianBlur stdDeviation="2"/>
<feComposite in2="hardAlpha" operator="arithmetic" k2="-1" k3="1"/>
<feColorMatrix type="matrix" values="0 0 0 0 0 0 0 0 0 0 0 0 0 0 0 0 0 0 0.25 0"/>
<feBlend mode="normal" in2="shape" result="effect1_innerShadow_105_7"/>
</filter>
<filter id="filter3_i_105_7" x="353.163" y="471.626" width="175.239" height="57.4714" filterUnits="userSpaceOnUse" color-interpolation-filters="sRGB">
<feFlood flood-opacity="0" result="BackgroundImageFix"/>
<feBlend mode="normal" in="SourceGraphic" in2="BackgroundImageFix" result="shape"/>
<feColorMatrix in="SourceAlpha" type="matrix" values="0 0 0 0 0 0 0 0 0 0 0 0 0 0 0 0 0 0 127 0" result="hardAlpha"/>
<feOffset dy="3"/>
<feGaussianBlur stdDeviation="2.25"/>
<feComposite in2="hardAlpha" operator="arithmetic" k2="-1" k3="1"/>
<feColorMatrix type="matrix" values="0 0 0 0 0 0 0 0 0 0 0 0 0 0 0 0 0 0 0.25 0"/>
<feBlend mode="normal" in2="shape" result="effect1_innerShadow_105_7"/>
</filter>
<filter id="filter4_i_105_7" x="386.734" y="519.203" width="98.6978" height="41.2336" filterUnits="userSpaceOnUse" color-interpolation-filters="sRGB">
<feFlood flood-opacity="0" result="BackgroundImageFix"/>
<feBlend mode="normal" in="SourceGraphic" in2="BackgroundImageFix" result="shape"/>
<feColorMatrix in="SourceAlpha" type="matrix" values="0 0 0 0 0 0 0 0 0 0 0 0 0 0 0 0 0 0 127 0" result="hardAlpha"/>
<feOffset dy="4"/>
<feGaussianBlur stdDeviation="2"/>
<feComposite in2="hardAlpha" operator="arithmetic" k2="-1" k3="1"/>
<feColorMatrix type="matrix" values="0 0 0 0 0 0 0 0 0 0 0 0 0 0 0 0 0 0 0.25 0"/>
<feBlend mode="normal" in2="shape" result="effect1_innerShadow_105_7"/>
</filter>
<filter id="filter5_i_105_7" x="384.048" y="547.472" width="98.6978" height="41.2336" filterUnits="userSpaceOnUse" color-interpolation-filters="sRGB">
<feFlood flood-opacity="0" result="BackgroundImageFix"/>
<feBlend mode="normal" in="SourceGraphic" in2="BackgroundImageFix" result="shape"/>
<feColorMatrix in="SourceAlpha" type="matrix" values="0 0 0 0 0 0 0 0 0 0 0 0 0 0 0 0 0 0 127 0" result="hardAlpha"/>
<feOffset dy="4"/>
<feGaussianBlur stdDeviation="2"/>
<feComposite in2="hardAlpha" operator="arithmetic" k2="-1" k3="1"/>
<feColorMatrix type="matrix" values="0 0 0 0 0 0 0 0 0 0 0 0 0 0 0 0 0 0 0.25 0"/>
<feBlend mode="normal" in2="shape" result="effect1_innerShadow_105_7"/>
</filter>
<filter id="filter6_i_105_7" x="381.858" y="573.878" width="97.719" height="44.95" filterUnits="userSpaceOnUse" color-interpolation-filters="sRGB">
<feFlood flood-opacity="0" result="BackgroundImageFix"/>
<feBlend mode="normal" in="SourceGraphic" in2="BackgroundImageFix" result="shape"/>
<feColorMatrix in="SourceAlpha" type="matrix" values="0 0 0 0 0 0 0 0 0 0 0 0 0 0 0 0 0 0 127 0" result="hardAlpha"/>
<feOffset dy="4"/>
<feGaussianBlur stdDeviation="2"/>
<feComposite in2="hardAlpha" operator="arithmetic" k2="-1" k3="1"/>
<feColorMatrix type="matrix" values="0 0 0 0 0 0 0 0 0 0 0 0 0 0 0 0 0 0 0.25 0"/>
<feBlend mode="normal" in2="shape" result="effect1_innerShadow_105_7"/>
</filter>
<filter id="filter7_di_105_7" x="507.511" y="491.55" width="62.9838" height="184.015" filterUnits="userSpaceOnUse" color-interpolation-filters="sRGB">
<feFlood flood-opacity="0" result="BackgroundImageFix"/>
<feColorMatrix in="SourceAlpha" type="matrix" values="0 0 0 0 0 0 0 0 0 0 0 0 0 0 0 0 0 0 127 0" result="hardAlpha"/>
<feOffset dx="4" dy="6"/>
<feGaussianBlur stdDeviation="2"/>
<feComposite in2="hardAlpha" operator="out"/>
<feColorMatrix type="matrix" values="0 0 0 0 0 0 0 0 0 0 0 0 0 0 0 0 0 0 0.25 0"/>
<feBlend mode="normal" in2="BackgroundImageFix" result="effect1_dropShadow_105_7"/>
<feBlend mode="normal" in="SourceGraphic" in2="effect1_dropShadow_105_7" result="shape"/>
<feColorMatrix in="SourceAlpha" type="matrix" values="0 0 0 0 0 0 0 0 0 0 0 0 0 0 0 0 0 0 127 0" result="hardAlpha"/>
<feOffset dx="7"/>
<feGaussianBlur stdDeviation="2"/>
<feComposite in2="hardAlpha" operator="arithmetic" k2="-1" k3="1"/>
<feColorMatrix type="matrix" values="0 0 0 0 0 0 0 0 0 0 0 0 0 0 0 0 0 0 0.25 0"/>
<feBlend mode="normal" in2="shape" result="effect2_innerShadow_105_7"/>
</filter>
<filter id="filter8_di_105_7" x="386.852" y="418.43" width="28.8942" height="17.3416" filterUnits="userSpaceOnUse" color-interpolation-filters="sRGB">
<feFlood flood-opacity="0" result="BackgroundImageFix"/>
<feColorMatrix in="SourceAlpha" type="matrix" values="0 0 0 0 0 0 0 0 0 0 0 0 0 0 0 0 0 0 127 0" result="hardAlpha"/>
<feOffset dy="3"/>
<feGaussianBlur stdDeviation="0.5"/>
<feComposite in2="hardAlpha" operator="out"/>
<feColorMatrix type="matrix" values="0 0 0 0 0 0 0 0 0 0 0 0 0 0 0 0 0 0 0.25 0"/>
<feBlend mode="normal" in2="BackgroundImageFix" result="effect1_dropShadow_105_7"/>
<feBlend mode="normal" in="SourceGraphic" in2="effect1_dropShadow_105_7" result="shape"/>
<feColorMatrix in="SourceAlpha" type="matrix" values="0 0 0 0 0 0 0 0 0 0 0 0 0 0 0 0 0 0 127 0" result="hardAlpha"/>
<feOffset dx="-3"/>
<feGaussianBlur stdDeviation="2"/>
<feComposite in2="hardAlpha" operator="arithmetic" k2="-1" k3="1"/>
<feColorMatrix type="matrix" values="0 0 0 0 0 0 0 0 0 0 0 0 0 0 0 0 0 0 0.25 0"/>
<feBlend mode="normal" in2="shape" result="effect2_innerShadow_105_7"/>
</filter>
<filter id="filter9_di_105_7" x="421.333" y="426.118" width="28.8942" height="17.3416" filterUnits="userSpaceOnUse" color-interpolation-filters="sRGB">
<feFlood flood-opacity="0" result="BackgroundImageFix"/>
<feColorMatrix in="SourceAlpha" type="matrix" values="0 0 0 0 0 0 0 0 0 0 0 0 0 0 0 0 0 0 127 0" result="hardAlpha"/>
<feOffset dy="3"/>
<feGaussianBlur stdDeviation="0.5"/>
<feComposite in2="hardAlpha" operator="out"/>
<feColorMatrix type="matrix" values="0 0 0 0 0 0 0 0 0 0 0 0 0 0 0 0 0 0 0.25 0"/>
<feBlend mode="normal" in2="BackgroundImageFix" result="effect1_dropShadow_105_7"/>
<feBlend mode="normal" in="SourceGraphic" in2="effect1_dropShadow_105_7" result="shape"/>
<feColorMatrix in="SourceAlpha" type="matrix" values="0 0 0 0 0 0 0 0 0 0 0 0 0 0 0 0 0 0 127 0" result="hardAlpha"/>
<feOffset dx="-3"/>
<feGaussianBlur stdDeviation="2"/>
<feComposite in2="hardAlpha" operator="arithmetic" k2="-1" k3="1"/>
<feColorMatrix type="matrix" values="0 0 0 0 0 0 0 0 0 0 0 0 0 0 0 0 0 0 0.25 0"/>
<feBlend mode="normal" in2="shape" result="effect2_innerShadow_105_7"/>
</filter>
<filter id="filter10_di_105_7" x="430.062" y="409.57" width="28.8942" height="17.3416" filterUnits="userSpaceOnUse" color-interpolation-filters="sRGB">
<feFlood flood-opacity="0" result="BackgroundImageFix"/>
<feColorMatrix in="SourceAlpha" type="matrix" values="0 0 0 0 0 0 0 0 0 0 0 0 0 0 0 0 0 0 127 0" result="hardAlpha"/>
<feOffset dy="3"/>
<feGaussianBlur stdDeviation="0.5"/>
<feComposite in2="hardAlpha" operator="out"/>
<feColorMatrix type="matrix" values="0 0 0 0 0 0 0 0 0 0 0 0 0 0 0 0 0 0 0.25 0"/>
<feBlend mode="normal" in2="BackgroundImageFix" result="effect1_dropShadow_105_7"/>
<feBlend mode="normal" in="SourceGraphic" in2="effect1_dropShadow_105_7" result="shape"/>
<feColorMatrix in="SourceAlpha" type="matrix" values="0 0 0 0 0 0 0 0 0 0 0 0 0 0 0 0 0 0 127 0" result="hardAlpha"/>
<feOffset dx="-3"/>
<feGaussianBlur stdDeviation="2"/>
<feComposite in2="hardAlpha" operator="arithmetic" k2="-1" k3="1"/>
<feColorMatrix type="matrix" values="0 0 0 0 0 0 0 0 0 0 0 0 0 0 0 0 0 0 0.25 0"/>
<feBlend mode="normal" in2="shape" result="effect2_innerShadow_105_7"/>
</filter>
<filter id="filter11_di_105_7" x="395.148" y="401.296" width="28.8942" height="17.3416" filterUnits="userSpaceOnUse" color-interpolation-filters="sRGB">
<feFlood flood-opacity="0" result="BackgroundImageFix"/>
<feColorMatrix in="SourceAlpha" type="matrix" values="0 0 0 0 0 0 0 0 0 0 0 0 0 0 0 0 0 0 127 0" result="hardAlpha"/>
<feOffset dy="3"/>
<feGaussianBlur stdDeviation="0.5"/>
<feComposite in2="hardAlpha" operator="out"/>
<feColorMatrix type="matrix" values="0 0 0 0 0 0 0 0 0 0 0 0 0 0 0 0 0 0 0.25 0"/>
<feBlend mode="normal" in2="BackgroundImageFix" result="effect1_dropShadow_105_7"/>
<feBlend mode="normal" in="SourceGraphic" in2="effect1_dropShadow_105_7" result="shape"/>
<feColorMatrix in="SourceAlpha" type="matrix" values="0 0 0 0 0 0 0 0 0 0 0 0 0 0 0 0 0 0 127 0" result="hardAlpha"/>
<feOffset dx="-3"/>
<feGaussianBlur stdDeviation="2"/>
<feComposite in2="hardAlpha" operator="arithmetic" k2="-1" k3="1"/>
<feColorMatrix type="matrix" values="0 0 0 0 0 0 0 0 0 0 0 0 0 0 0 0 0 0 0.25 0"/>
<feBlend mode="normal" in2="shape" result="effect2_innerShadow_105_7"/>
</filter>
<filter id="filter12_di_105_7" x="532.43" y="414.155" width="50.9562" height="108.669" filterUnits="userSpaceOnUse" color-interpolation-filters="sRGB">
<feFlood flood-opacity="0" result="BackgroundImageFix"/>
<feColorMatrix in="SourceAlpha" type="matrix" values="0 0 0 0 0 0 0 0 0 0 0 0 0 0 0 0 0 0 127 0" result="hardAlpha"/>
<feOffset dx="6" dy="1"/>
<feGaussianBlur stdDeviation="2"/>
<feComposite in2="hardAlpha" operator="out"/>
<feColorMatrix type="matrix" values="0 0 0 0 0 0 0 0 0 0 0 0 0 0 0 0 0 0 0.25 0"/>
<feBlend mode="normal" in2="BackgroundImageFix" result="effect1_dropShadow_105_7"/>
<feBlend mode="normal" in="SourceGraphic" in2="effect1_dropShadow_105_7" result="shape"/>
<feColorMatrix in="SourceAlpha" type="matrix" values="0 0 0 0 0 0 0 0 0 0 0 0 0 0 0 0 0 0 127 0" result="hardAlpha"/>
<feOffset dx="4" dy="4"/>
<feGaussianBlur stdDeviation="2"/>
<feComposite in2="hardAlpha" operator="arithmetic" k2="-1" k3="1"/>
<feColorMatrix type="matrix" values="0 0 0 0 0 0 0 0 0 0 0 0 0 0 0 0 0 0 0.25 0"/>
<feBlend mode="normal" in2="shape" result="effect2_innerShadow_105_7"/>
</filter>
<filter id="filter13_d_105_7" x="503.124" y="435.427" width="21.3353" height="13.5617" filterUnits="userSpaceOnUse" color-interpolation-filters="sRGB">
<feFlood flood-opacity="0" result="BackgroundImageFix"/>
<feColorMatrix in="SourceAlpha" type="matrix" values="0 0 0 0 0 0 0 0 0 0 0 0 0 0 0 0 0 0 127 0" result="hardAlpha"/>
<feOffset dx="1" dy="3"/>
<feGaussianBlur stdDeviation="0.55"/>
<feComposite in2="hardAlpha" operator="out"/>
<feColorMatrix type="matrix" values="0 0 0 0 0 0 0 0 0 0 0 0 0 0 0 0 0 0 0.25 0"/>
<feBlend mode="normal" in2="BackgroundImageFix" result="effect1_dropShadow_105_7"/>
<feBlend mode="normal" in="SourceGraphic" in2="effect1_dropShadow_105_7" result="shape"/>
</filter>
<filter id="filter14_d_105_7" x="502.288" y="427.497" width="20.6709" height="19.7692" filterUnits="userSpaceOnUse" color-interpolation-filters="sRGB">
<feFlood flood-opacity="0" result="BackgroundImageFix"/>
<feColorMatrix in="SourceAlpha" type="matrix" values="0 0 0 0 0 0 0 0 0 0 0 0 0 0 0 0 0 0 127 0" result="hardAlpha"/>
<feOffset dy="4"/>
<feGaussianBlur stdDeviation="0.3"/>
<feComposite in2="hardAlpha" operator="out"/>
<feColorMatrix type="matrix" values="0 0 0 0 0.766667 0 0 0 0 0.46 0 0 0 0 0.46 0 0 0 0.25 0"/>
<feBlend mode="normal" in2="BackgroundImageFix" result="effect1_dropShadow_105_7"/>
<feBlend mode="normal" in="SourceGraphic" in2="effect1_dropShadow_105_7" result="shape"/>
</filter>
<filter id="filter15_i_105_7" x="520.709" y="338.206" width="27.1637" height="60.2847" filterUnits="userSpaceOnUse" color-interpolation-filters="sRGB">
<feFlood flood-opacity="0" result="BackgroundImageFix"/>
<feBlend mode="normal" in="SourceGraphic" in2="BackgroundImageFix" result="shape"/>
<feColorMatrix in="SourceAlpha" type="matrix" values="0 0 0 0 0 0 0 0 0 0 0 0 0 0 0 0 0 0 127 0" result="hardAlpha"/>
<feOffset dx="-4"/>
<feGaussianBlur stdDeviation="2"/>
<feComposite in2="hardAlpha" operator="arithmetic" k2="-1" k3="1"/>
<feColorMatrix type="matrix" values="0 0 0 0 0 0 0 0 0 0 0 0 0 0 0 0 0 0 0.25 0"/>
<feBlend mode="normal" in2="shape" result="effect1_innerShadow_105_7"/>
</filter>
<filter id="filter16_i_105_7" x="504.924" y="335.103" width="25.828" height="60.1802" filterUnits="userSpaceOnUse" color-interpolation-filters="sRGB">
<feFlood flood-opacity="0" result="BackgroundImageFix"/>
<feBlend mode="normal" in="SourceGraphic" in2="BackgroundImageFix" result="shape"/>
<feColorMatrix in="SourceAlpha" type="matrix" values="0 0 0 0 0 0 0 0 0 0 0 0 0 0 0 0 0 0 127 0" result="hardAlpha"/>
<feOffset dx="-3"/>
<feGaussianBlur stdDeviation="2"/>
<feComposite in2="hardAlpha" operator="arithmetic" k2="-1" k3="1"/>
<feColorMatrix type="matrix" values="0 0 0 0 0 0 0 0 0 0 0 0 0 0 0 0 0 0 0.25 0"/>
<feBlend mode="normal" in2="shape" result="effect1_innerShadow_105_7"/>
</filter>
<filter id="filter17_i_105_7" x="501.91" y="391.298" width="21.7925" height="11.9058" filterUnits="userSpaceOnUse" color-interpolation-filters="sRGB">
<feFlood flood-opacity="0" result="BackgroundImageFix"/>
<feBlend mode="normal" in="SourceGraphic" in2="BackgroundImageFix" result="shape"/>
<feColorMatrix in="SourceAlpha" type="matrix" values="0 0 0 0 0 0 0 0 0 0 0 0 0 0 0 0 0 0 127 0" result="hardAlpha"/>
<feOffset dx="-5"/>
<feGaussianBlur stdDeviation="2"/>
<feComposite in2="hardAlpha" operator="arithmetic" k2="-1" k3="1"/>
<feColorMatrix type="matrix" values="0 0 0 0 0 0 0 0 0 0 0 0 0 0 0 0 0 0 0.25 0"/>
<feBlend mode="normal" in2="shape" result="effect1_innerShadow_105_7"/>
</filter>
<filter id="filter18_i_105_7" x="519.702" y="395.78" width="21.121" height="11.0798" filterUnits="userSpaceOnUse" color-interpolation-filters="sRGB">
<feFlood flood-opacity="0" result="BackgroundImageFix"/>
<feBlend mode="normal" in="SourceGraphic" in2="BackgroundImageFix" result="shape"/>
<feColorMatrix in="SourceAlpha" type="matrix" values="0 0 0 0 0 0 0 0 0 0 0 0 0 0 0 0 0 0 127 0" result="hardAlpha"/>
<feOffset dx="-6"/>
<feGaussianBlur stdDeviation="2"/>
<feComposite in2="hardAlpha" operator="arithmetic" k2="-1" k3="1"/>
<feColorMatrix type="matrix" values="0 0 0 0 0 0 0 0 0 0 0 0 0 0 0 0 0 0 0.25 0"/>
<feBlend mode="normal" in2="shape" result="effect1_innerShadow_105_7"/>
</filter>
<filter id="filter19_di_105_7" x="280.513" y="421.773" width="90.6429" height="115.913" filterUnits="userSpaceOnUse" color-interpolation-filters="sRGB">
<feFlood flood-opacity="0" result="BackgroundImageFix"/>
<feColorMatrix in="SourceAlpha" type="matrix" values="0 0 0 0 0 0 0 0 0 0 0 0 0 0 0 0 0 0 127 0" result="hardAlpha"/>
<feOffset dx="3" dy="9"/>
<feGaussianBlur stdDeviation="0.95"/>
<feComposite in2="hardAlpha" operator="out"/>
<feColorMatrix type="matrix" values="0 0 0 0 0 0 0 0 0 0 0 0 0 0 0 0 0 0 0.25 0"/>
<feBlend mode="normal" in2="BackgroundImageFix" result="effect1_dropShadow_105_7"/>
<feBlend mode="normal" in="SourceGraphic" in2="effect1_dropShadow_105_7" result="shape"/>
<feColorMatrix in="SourceAlpha" type="matrix" values="0 0 0 0 0 0 0 0 0 0 0 0 0 0 0 0 0 0 127 0" result="hardAlpha"/>
<feOffset dx="-6" dy="-5"/>
<feGaussianBlur stdDeviation="2"/>
<feComposite in2="hardAlpha" operator="arithmetic" k2="-1" k3="1"/>
<feColorMatrix type="matrix" values="0 0 0 0 0 0 0 0 0 0 0 0 0 0 0 0 0 0 0.25 0"/>
<feBlend mode="normal" in2="shape" result="effect2_innerShadow_105_7"/>
</filter>
<filter id="filter20_ii_105_7" x="285.029" y="441.425" width="75.8412" height="107.635" filterUnits="userSpaceOnUse" color-interpolation-filters="sRGB">
<feFlood flood-opacity="0" result="BackgroundImageFix"/>
<feBlend mode="normal" in="SourceGraphic" in2="BackgroundImageFix" result="shape"/>
<feColorMatrix in="SourceAlpha" type="matrix" values="0 0 0 0 0 0 0 0 0 0 0 0 0 0 0 0 0 0 127 0" result="hardAlpha"/>
<feOffset dx="2" dy="9"/>
<feGaussianBlur stdDeviation="2"/>
<feComposite in2="hardAlpha" operator="arithmetic" k2="-1" k3="1"/>
<feColorMatrix type="matrix" values="0 0 0 0 0 0 0 0 0 0 0 0 0 0 0 0 0 0 0.25 0"/>
<feBlend mode="normal" in2="shape" result="effect1_innerShadow_105_7"/>
<feColorMatrix in="SourceAlpha" type="matrix" values="0 0 0 0 0 0 0 0 0 0 0 0 0 0 0 0 0 0 127 0" result="hardAlpha"/>
<feOffset dx="-2" dy="-4"/>
<feGaussianBlur stdDeviation="2"/>
<feComposite in2="hardAlpha" operator="arithmetic" k2="-1" k3="1"/>
<feColorMatrix type="matrix" values="0 0 0 0 0 0 0 0 0 0 0 0 0 0 0 0 0 0 0.25 0"/>
<feBlend mode="normal" in2="effect1_innerShadow_105_7" result="effect2_innerShadow_105_7"/>
</filter>
<linearGradient id="paint0_linear_105_7" x1="464.618" y1="376.474" x2="445.516" y2="519.762" gradientUnits="userSpaceOnUse">
<stop stop-color="#A6EDFF"/>
<stop offset="0.44" stop-color="#D9E6E9"/>
<stop offset="1" stop-color="#5DCDE9"/>
</linearGradient>
<linearGradient id="paint1_linear_105_7" x1="496.846" y1="440.943" x2="572.061" y2="436.038" gradientUnits="userSpaceOnUse">
<stop stop-color="#BCD3A4"/>
<stop offset="1" stop-color="#616D55"/>
</linearGradient>
<linearGradient id="paint2_linear_105_7" x1="525.381" y1="254.43" x2="694.342" y2="292.12" gradientUnits="userSpaceOnUse">
<stop stop-color="#74E6F8"/>
<stop offset="1" stop-color="#448792"/>
</linearGradient>
<linearGradient id="paint3_linear_105_7" x1="472.003" y1="344.411" x2="513.641" y2="186.011" gradientUnits="userSpaceOnUse">
<stop stop-color="#6E096F"/>
<stop offset="1" stop-color="#1175D5"/>
</linearGradient>
<linearGradient id="paint4_linear_105_7" x1="367.599" y1="494.38" x2="577.065" y2="839.425" gradientUnits="userSpaceOnUse">
<stop stop-color="#7EEAF9"/>
<stop offset="0.813754" stop-color="#4A8A93"/>
</linearGradient>
<linearGradient id="paint5_linear_105_7" x1="381.027" y1="519.899" x2="553.855" y2="568.746" gradientUnits="userSpaceOnUse">
<stop stop-color="#54AACC"/>
<stop offset="1" stop-color="#2A5566"/>
</linearGradient>
<linearGradient id="paint6_linear_105_7" x1="378.341" y1="548.168" x2="551.17" y2="597.016" gradientUnits="userSpaceOnUse">
<stop stop-color="#54AACC"/>
<stop offset="1" stop-color="#2A5566"/>
</linearGradient>
<linearGradient id="paint7_linear_105_7" x1="376.345" y1="574.342" x2="547.369" y2="629.494" gradientUnits="userSpaceOnUse">
<stop stop-color="#54AACC"/>
<stop offset="1" stop-color="#2A5566"/>
</linearGradient>
<linearGradient id="paint8_linear_105_7" x1="502.888" y1="552.867" x2="732.252" y2="571.543" gradientUnits="userSpaceOnUse">
<stop stop-color="#1E2128"/>
<stop offset="1" stop-color="#6B758E"/>
</linearGradient>
<linearGradient id="paint9_linear_105_7" x1="518.666" y1="431.979" x2="619.121" y2="482.21" gradientUnits="userSpaceOnUse">
<stop offset="0.218472" stop-color="#B1B3B9"/>
<stop offset="0.723099" stop-color="#333437"/>
</linearGradient>
<linearGradient id="paint10_linear_105_7" x1="570.03" y1="509.55" x2="552.346" y2="386.256" gradientUnits="userSpaceOnUse">
<stop stop-color="#46495A"/>
<stop offset="1" stop-color="#959CC0"/>
</linearGradient>
<linearGradient id="paint11_linear_105_7" x1="27.528" y1="511.273" x2="496.636" y2="427.118" gradientUnits="userSpaceOnUse">
<stop stop-color="#33B2D3"/>
<stop offset="1" stop-color="#1A5C6D"/>
</linearGradient>
<linearGradient id="paint12_linear_105_7" x1="260.172" y1="488.864" x2="219.216" y2="489.518" gradientUnits="userSpaceOnUse">
<stop stop-color="#7DD1E5"/>
<stop offset="0.460842" stop-color="white"/>
</linearGradient>
<linearGradient id="paint13_linear_105_7" x1="21.9887" y1="479.556" x2="13.0057" y2="506.998" gradientUnits="userSpaceOnUse">
<stop offset="0.256082" stop-color="#9BDBEB"/>
<stop offset="1" stop-color="#A9A9A9"/>
</linearGradient>
<linearGradient id="paint14_linear_105_7" x1="504.567" y1="440.598" x2="524.71" y2="439.944" gradientUnits="userSpaceOnUse">
<stop offset="0.00858315" stop-color="#737373"/>
<stop offset="0.792493" stop-color="#734426"/>
</linearGradient>
<linearGradient id="paint15_linear_105_7" x1="500.203" y1="452.665" x2="540.246" y2="444.145" gradientUnits="userSpaceOnUse">
<stop stop-color="#A0D39F"/>
<stop offset="1" stop-color="#7A5E30"/>
</linearGradient>
<linearGradient id="paint16_linear_105_7" x1="288.708" y1="502.999" x2="267.227" y2="516.611" gradientUnits="userSpaceOnUse">
<stop offset="0.517896" stop-color="#56C3E1"/>
<stop offset="1" stop-color="white"/>
</linearGradient>
<linearGradient id="paint17_linear_105_7" x1="67.1412" y1="470.592" x2="74.1612" y2="486.314" gradientUnits="userSpaceOnUse">
<stop offset="0.257096" stop-color="#68DDEC"/>
<stop offset="0.679041" stop-color="white"/>
</linearGradient>
<linearGradient id="paint18_linear_105_7" x1="172.553" y1="113.08" x2="172.553" y2="319.761" gradientUnits="userSpaceOnUse">
<stop stop-color="#00449F" stop-opacity="0.74"/>
<stop offset="1" stop-color="#42A7CA" stop-opacity="0.33"/>
</linearGradient>
<linearGradient id="paint19_linear_105_7" x1="35.249" y1="484.963" x2="-3.33269" y2="469.83" gradientUnits="userSpaceOnUse">
<stop stop-color="#9DE8EF"/>
<stop offset="1" stop-color="#5A8589"/>
</linearGradient>
<linearGradient id="paint20_linear_105_7" x1="193.892" y1="105.824" x2="345.297" y2="116.972" gradientUnits="userSpaceOnUse">
<stop stop-color="#BBCDDC"/>
<stop offset="0.845" stop-color="#8BC4F3"/>
<stop offset="1" stop-color="#646E76"/>
</linearGradient>
<linearGradient id="paint21_linear_105_7" x1="25.5138" y1="63.4515" x2="338.392" y2="63.4358" gradientUnits="userSpaceOnUse">
<stop stop-color="#D9DCDE"/>
<stop offset="0.701807" stop-color="#E8E8E8"/>
<stop offset="0.895" stop-color="#A3A3A3"/>
<stop offset="0.968836" stop-color="#4A80BB" stop-opacity="0.33"/>
<stop offset="1" stop-color="#757778" stop-opacity="0"/>
</linearGradient>
<linearGradient id="paint22_linear_105_7" x1="26.1852" y1="55.1609" x2="342.087" y2="58.4299" gradientUnits="userSpaceOnUse">
<stop offset="0.000606941" stop-color="#C9C9C9"/>
<stop offset="0.861537" stop-color="#B1B1B1" stop-opacity="0.75"/>
<stop offset="0.978356" stop-color="#6889A9"/>
</linearGradient>
<linearGradient id="paint23_linear_105_7" x1="247.751" y1="31.7174" x2="334.028" y2="31.9323" gradientUnits="userSpaceOnUse">
<stop offset="0.331889" stop-color="#D9DBDD"/>
<stop offset="0.831925" stop-color="#E3E3E3" stop-opacity="0.75"/>
<stop offset="0.95" stop-color="#5684AA" stop-opacity="0.99"/>
</linearGradient>
<linearGradient id="paint24_linear_105_7" x1="26.8566" y1="19.3063" x2="339.408" y2="12.1144" gradientUnits="userSpaceOnUse">
<stop offset="0.645" stop-color="#F2F2F2"/>
<stop offset="1" stop-color="#737373"/>
</linearGradient>
<linearGradient id="paint25_linear_105_7" x1="290.722" y1="88.947" x2="342.421" y2="89.2739" gradientUnits="userSpaceOnUse">
<stop stop-color="#D9D9D9"/>
<stop offset="0.494074" stop-color="#C9C9C9"/>
<stop offset="0.82" stop-color="#8CC4F4"/>
<stop offset="1" stop-color="#737373"/>
</linearGradient>
<linearGradient id="paint26_linear_105_7" x1="29.2062" y1="365.441" x2="26.558" y2="545.057" gradientUnits="userSpaceOnUse">
<stop stop-color="#A9A9A9"/>
<stop offset="1" stop-color="#74BCD9"/>
</linearGradient>
<linearGradient id="paint27_linear_105_7" x1="253.458" y1="555.747" x2="253.458" y2="648.486" gradientUnits="userSpaceOnUse">
<stop stop-color="#AFFDFB"/>
<stop offset="1" stop-color="#A5A5A5"/>
</linearGradient>
<linearGradient id="paint28_linear_105_7" x1="262.523" y1="629.788" x2="74.5269" y2="629.788" gradientUnits="userSpaceOnUse">
<stop stop-color="#4B4E57"/>
<stop offset="1" stop-color="#A3A9BD"/>
</linearGradient>
<linearGradient id="paint29_linear_105_7" x1="121.237" y1="561.597" x2="94.273" y2="637.827" gradientUnits="userSpaceOnUse">
<stop stop-color="white"/>
<stop offset="0.09" stop-color="#CFFDFC"/>
<stop offset="1" stop-color="#7C9796"/>
</linearGradient>
<linearGradient id="paint30_linear_105_7" x1="511.952" y1="365.786" x2="557.641" y2="371.02" gradientUnits="userSpaceOnUse">
<stop offset="0.14" stop-color="#9D9CA9"/>
<stop offset="0.961812" stop-color="#692328"/>
</linearGradient>
<linearGradient id="paint31_linear_105_7" x1="512.959" y1="358.201" x2="529.167" y2="363.791" gradientUnits="userSpaceOnUse">
<stop stop-color="#9EE6CC"/>
<stop offset="0.938731" stop-color="#8F5B30"/>
</linearGradient>
<linearGradient id="paint32_linear_105_7" x1="506.581" y1="396.125" x2="535.816" y2="400.051" gradientUnits="userSpaceOnUse">
<stop stop-color="#4BACCF"/>
<stop offset="1" stop-color="#265769"/>
</linearGradient>
<linearGradient id="paint33_linear_105_7" x1="525.716" y1="399.572" x2="544.552" y2="403.175" gradientUnits="userSpaceOnUse">
<stop stop-color="#48A4CC"/>
<stop offset="1" stop-color="#245266"/>
</linearGradient>
</defs>
</svg>
