<svg width="245" height="539" viewBox="0 0 245 539" fill="none" xmlns="http://www.w3.org/2000/svg">
<path d="M210.047 242.6L230.047 292.1C232.677 300.979 231.49 303.608 241.047 318.6C242.705 324.367 244.547 329.601 243.047 336.1C241.547 342.599 240.663 344.458 235.547 348.1C230.013 351.382 224.547 353.099 219.047 351.6C213.547 350.101 210.062 348.079 205.047 340.1C202.168 339.993 200.169 340.706 196.047 343.1C194.182 343.261 193.155 343.273 192.047 340.1C192.386 336.629 193.049 334.513 196.047 330.1C197.851 321.855 197.88 317.777 196.047 311.6L187.547 282.6L176.047 253.6M210.047 242.6C211.973 241.261 212.821 239.519 214.047 235.1L200.047 204.6C195.292 195.671 192.047 191.101 185.547 185.6C179.047 180.099 170.274 178.468 166.047 178.6M210.047 242.6C209.712 239.013 209.627 236.803 208.047 235.6C206.468 234.397 186.296 237.506 174.547 242.6M166.047 178.6C158.389 171.081 154.381 166.707 140.547 162.6C151.616 159.156 158.102 156.805 178.047 140.1C182.113 135.914 183.093 133.803 185.294 129.955M166.047 178.6L170.547 197.1L168.047 210.1L167.047 221.6L166.547 233.1L169.547 240.1L170.547 248.1M199.547 96.1002C199.547 96.1002 199.547 95.5993 201.547 97.6002C203.547 99.6011 204.047 105.599 203.547 110.1C203.047 114.601 201.547 119.6 199.047 124.6C196.547 129.6 189.058 131.514 185.547 129.6L185.294 129.955M199.547 96.1002L198.047 71.6002C195.394 58.7826 189.547 45.601 185.047 41.1002C180.547 36.5993 174.547 32.1002 174.547 32.1002M199.547 96.1002L185.294 129.955M174.547 32.1002C174.923 26.4849 174.922 23.5058 174.547 18.6002C168.551 8.90119 163.047 6.60105 151.047 3.10016C139.047 -0.400729 106.047 1.09936 93.5474 3.10016C81.0474 5.10096 64.066 16.0402 52.5474 28.6002C43.7176 39.1089 39.1817 45.6655 34.0474 62.1002C33.0168 68.9106 32.8414 72.1287 35.0474 74.1002L39.5474 75.1002M174.547 32.1002L163.047 47.1002C150.186 57.3727 141.547 62.1002 123.547 65.6002C105.547 69.1002 83.4281 67.8286 59.5474 63.6002C48.6328 67.5524 44.6244 70.1076 39.5474 75.1002M39.5474 75.1002C36.7242 83.083 35.7114 86.7305 35.0474 91.6002M35.0474 91.6002V101.1C35.5119 108.74 36.3112 111.814 38.0474 116.6L41.5474 125.6M35.0474 91.6002C31.8626 93.9067 30.1466 95.347 29.0474 102.1C28.4698 107.698 29.0475 114.6 31.0474 118.6C33.0474 122.6 37.7697 126.789 41.5474 125.6M41.5474 125.6C48.8695 137.112 55.2709 144.167 74.0474 154.1C80.4388 157.143 84.0522 158.447 90.5474 160.1C78.525 161.756 71.9941 163.081 62.5474 169.6L54.0474 179.1M54.0474 179.1C47.6428 179.108 43.5842 179.964 33.5474 186.6C26.5805 195.902 22.6696 201.173 15.0474 218.1L7.54742 233.6C7.32917 237.932 7.41697 240.178 10.5474 241.6H11.5474M54.0474 179.1C57.0474 180.1 58.5474 181.6 60.0474 183.6C61.5475 185.6 65.0474 200.6 65.0474 200.6C65.3261 207.631 65.3745 211.568 65.0474 218.6L56.0474 241.6L46.5474 256.6M46.5474 256.6C45.2848 254.584 44.5366 253.474 42.0474 252.1L19.0474 241.6C16.4969 240.407 14.925 240.185 11.5474 241.6M46.5474 256.6C44.7901 256.6 43.8048 256.6 42.0474 256.6C38.9796 261.725 37.3099 264.869 34.5474 271.6L39.9474 280.6M46.5474 256.6C43.2195 263.53 41.6151 268.263 39.9474 280.6M11.5474 241.6C7.70035 248.844 5.68048 250.275 1.04742 272.6C0.79688 280.265 1.41012 284.814 6.04742 294.1C9.7272 302.331 11.4763 307.185 17.5474 313.6C18.6979 324.162 20.8039 328.479 25.5474 335.1C28.5542 338.683 30.5033 340.155 34.5474 341.6M34.5474 341.6L27.0474 376.6L23.5474 402.6L21.0474 406.1L20.5474 411.1V417.1M34.5474 341.6C40.0266 342.467 43.2047 341.764 49.0474 338.6C52.6716 334.682 54.6333 331.237 58.0474 323.6L49.0474 306.1C49.0474 306.1 54.5475 313.599 57.0474 315.1C59.5474 316.601 63.2912 316.552 65.0474 315.6C67.3457 313.878 68.0474 309.101 67.5474 307.6C67.5011 307.461 67.3491 307.264 67.1072 307.02M20.5474 417.1V421.6L22.0474 427.1L24.5474 429.6V433.6M20.5474 417.1C52.8549 429.384 62.2773 429.051 75.0474 425.1M24.5474 433.6C21.848 435.3 19.5474 436.6 18.0474 441.6C16.5474 446.6 17.0474 455.6 16.0474 457.6C15.0474 459.6 10.6431 464.688 8.54742 473.6L5.54742 491.6V505.1C8.00505 512.782 8.04742 517.1 14.0474 525.1C20.0474 533.1 26.725 537.39 33.0474 538.1C39.3699 538.81 46.5474 537.6 52.0474 532.1C57.5474 526.6 60.1559 520.524 63.0474 512.1C64.7672 497.759 65.0474 491.1 63.5474 480.1C62.0474 469.1 60.5474 467.6 60.5474 467.6L64.5474 452.6C64.3306 449.575 64.1101 447.964 62.5474 446.1C63.1712 441.843 63.6421 440.331 64.5474 438.1M24.5474 433.6C40.9489 439.273 49.8324 440.896 64.5474 438.1M64.5474 438.1C70.2158 435.062 72.641 432.377 75.0474 425.1M75.0474 425.1C75.9587 412.582 76.8276 405.99 79.0474 395.1L84.5474 365.1L95.5474 328.1L101.047 310.1M101.047 310.1C87.1354 310.066 79.6541 309.491 67.1072 307.02M101.047 310.1L101.762 308.314M121.547 401.1L123.547 398.6L125.547 362.6L124.547 349.6C119.861 336.322 117.234 328.878 112.547 315.6L109.403 309.101M121.547 401.1V416.1C127.733 424.697 133.547 429.601 140.547 431.1C147.547 432.599 154.565 432.303 163.547 431.1C169.434 428.473 172.186 425.684 177.047 420.6M121.547 401.1C124.303 407.341 129.047 415.6 136.047 418.1C143.047 420.6 153.047 421.101 162.547 419.6C172.047 418.099 173.197 413.432 178.547 407.1M177.047 420.6L178.547 407.1M177.047 420.6L169.547 428.6V434.1C171.586 436.102 172.083 437.548 172.047 440.6L170.547 455.6L175.047 463.1C179.233 472.293 181.483 477.699 184.047 491.1C184.359 502.751 185.047 507.6 181.547 515.6C178.047 523.6 173.97 528.967 169.047 529.1H159.047C153.503 528.303 152.047 526.601 146.547 523.6C141.047 520.599 126.955 503.252 120.047 491.1C112.714 470.821 112.047 465.901 114.047 463.1C118.231 451.01 120.522 446.969 124.547 442.6L125.547 439.1L130.047 426.1M178.547 407.1L180.547 354.1L177.047 332.1L166.047 291.6M166.047 291.6L174.547 280.6V271.1L172.547 268.1L170.547 254.6M166.047 291.6C164.833 284.743 164.047 280.6 157.547 280.6C151.047 280.6 53.5474 278.601 53.5474 278.601M166.047 291.6C149.936 301.384 138.381 305.636 109.403 309.101M170.547 254.6V248.1M170.547 254.6C172.224 255.149 172.254 255.6 174.547 255.6C176.841 255.6 176.162 255.303 176.047 253.6M170.547 248.1L174.547 242.6M174.547 242.6L176.047 253.6M48.0474 294.1L49.0474 297.1C53.7589 297.749 64.7392 304.629 67.1072 307.02M48.0474 294.1L53.5474 278.601M48.0474 294.1L39.9474 280.6M53.5474 278.601C50.0197 294.679 47.1525 296.047 39.9474 280.6M109.403 309.101L108.676 307.6M101.762 308.314L105.047 300.1L108.676 307.6M101.762 308.314C105.29 308.454 106.755 308.27 108.676 307.6" stroke="black"/>
</svg>
